PathFileType	4	(X/Y/Z)	trial_0_0-299.trc
DataRate	CameraRate	NumFrames	NumMarkers	Units	OrigDataRate	OrigDataStartFrame	OrigNumFrames
60	60	6	21	m	60	74	299
Frame#	Time	RHip			RKnee			RAnkle			RBigToe			RSmallToe			RHeel			LHip			LKnee			LAnkle			LBigToe			LSmallToe			LHeel			Neck			Head			Nose			RShoulder			RElbow			RWrist			LShoulder			LElbow			LWrist		
		X1	Y1	Z1	X2	Y2	Z2	X3	Y3	Z3	X4	Y4	Z4	X5	Y5	Z5	X6	Y6	Z6	X7	Y7	Z7	X8	Y8	Z8	X9	Y9	Z9	X10	Y10	Z10	X11	Y11	Z11	X12	Y12	Z12	X13	Y13	Z13	X14	Y14	Z14	X15	Y15	Z15	X16	Y16	Z16	X17	Y17	Z17	X18	Y18	Z18	X19	Y19	Z19	X20	Y20	Z20	X21	Y21	Z21
75	1.25	1.3715456865554758	1.1849669947449777	0.4474920855593085	1.8200342578176871	1.109670857066996	0.4320778113788666	2.1460254065896183	0.928397138720469	0.35504732899694913	2.444193665135096	1.159513650521365	0.34222352493733454	2.4028034216323477	1.0947953050822692	0.4329727171071189	2.1369437347063633	0.8509420388312848	0.3408122119087451	1.374688735202816	1.2216522909459473	0.17443342032314132	1.7907539579711524	1.0808356079709538	0.1729449782611329	2.0618950356917165	0.8216864858706774	0.17368431563796102	2.446400581003192	1.1677955775902147	0.17625148743102298	2.305691485375938	1.0240862322656188	0.10091020641773164	2.057661291773592	0.7039424719618546	0.1853980997751776	0.6569706353037216	1.1288218860443144	0.3624667271957499	0.31328341655213904	1.3765510940577521	0.41830569923204686	0.5448241844407928	1.576967862810461	0.4035499169594765	0.7493846180991788	1.1591465543368393	0.5566462770035336	1.0880699117423125	1.1688538966000923	0.584542879891696	1.392063352502501	1.4495426856472613	0.42255820768287067	0.7200401153671353	1.1334259064605767	0.16687512731324153	1.069722149387217	1.2025759509071703	0.08011998874987257	1.4246646693946121	1.5787313920174773	0.2591785047722044
76	1.2666666666666666	1.373839627923681	1.1699348507986607	0.4518086662084721	1.8237626399659788	1.1089004987388686	0.43115855101923006	2.146206235201348	0.9289302534980116	0.3549475333041764	2.4187172754640547	1.126149025418049	0.33440244085505993	2.402708587478937	1.0942807373885668	0.432823839957513	2.1363708162067554	0.8494128507705239	0.34094780917288336	1.3750936316487354	1.22104811408132	0.17430227628133088	1.7926227677200366	1.0762443913745032	0.17284515035379575	2.055923623867016	0.8200467922400796	0.17264151514457118	2.445340482867801	1.1658960695498102	0.17471548070777626	2.3057228559572613	1.0240107739638677	0.10081007682576504	2.056021175685655	0.691017195862221	0.1880454641952547	0.653998758584338	1.1330212800738408	0.3627237989233788	0.3126969437134486	1.3793993944411533	0.4183412155122057	0.550428596103361	1.5806618895492797	0.4041064167438681	0.7493077192661682	1.1599081851501432	0.5567060260968526	1.0882248262795045	1.1700778235506342	0.5844617797378222	1.3917386808320082	1.447173855496718	0.4224949436826937	0.7201079158148916	1.1335796757810113	0.16668421292012736	1.0681323615408456	1.2083320207738095	0.08001305586736455	1.4209961027269236	1.565566653377033	0.26446712710426684
77	1.2833333333333334	1.3737716485439169	1.1709674865107658	0.4518446316459059	1.8238170340329625	1.1098724060194494	0.43122967162883624	2.149734401147841	0.9288283617451694	0.35417994291923593	2.411893570837702	1.1093126761062135	0.3379873087098213	2.4077965609478453	1.0974158124310396	0.43178715725592065	2.1365669918331203	0.8502777248398329	0.34104982090228464	1.3747025552593684	1.2201988802799448	0.1745575730326743	1.7900500550349783	1.0810282503895912	0.173039652936751	2.0619073748244205	0.8204690824797071	0.17358760441459292	2.45776542992821	1.1870198759212338	0.17056864096608385	2.3059631520274944	1.0256252050564738	0.10071848471975058	2.0559624608299396	0.6898404284033345	0.18818347215278425	0.6569503246355447	1.128355846555272	0.3626919424973498	0.31262843786237454	1.381412273345814	0.4179435131200143	0.5505789491233605	1.579682409923663	0.40414533272100717	0.7494784125437631	1.1588906755260728	0.5567841759562351	1.088225209695732	1.1692895824603105	0.5842631903006877	1.3918681155457169	1.4474377287446336	0.4219141949246561	0.7198679708441057	1.1345928092325983	0.16676553968801772	1.0681467394030957	1.210066128297859	0.07956939732388739	1.4212200722627186	1.5677006520701329	0.2643723122113186
78	1.3	1.3734701210615805	1.1690599903295813	0.45213199629972806	1.8233181082723955	1.1083461490807915	0.4313340370248326	2.1462928938073014	0.9298008600598665	0.35490923738359104	2.420600790533622	1.1309696428324176	0.3339466472081651	2.4052313503119027	1.100007374348371	0.43238407984057514	2.136251462351557	0.8501155480840685	0.34113028602087697	1.3747534089912028	1.2191494101446878	0.1746334115466746	1.7903239927535035	1.080998665620005	0.17307713562286214	2.0622376174318107	0.8226144227310493	0.17350933926800535	2.4458345993768025	1.168950034623571	0.17471539486840307	2.305095252679088	1.0243488873872677	0.10127122356157348	2.063506557208456	0.7030707607924227	0.18490505781843808	0.6539753562012286	1.1320009185993167	0.36301922133119907	0.31192820476806205	1.3858230103648954	0.4177350373423414	0.550491273093043	1.5793967905813564	0.40427519441420356	0.7489813909335956	1.1605981606552835	0.5568865004822354	1.0881114881312506	1.167903668805608	0.5846354262081039	1.3917839131154346	1.446961699248342	0.42202294816808267	0.7246586837836304	1.172012150434242	0.17256141877674663	1.0705458812658608	1.2010563727874302	0.07978246550085429	1.4210808443366507	1.5647252086190588	0.2643382027098977
79	1.3166666666666667	1.3734765732426415	1.168049422734728	0.4520261235965498	1.821047566990032	1.1142877982482902	0.4316990680303604	2.146705951735205	0.9305305418528064	0.3547999332613101	2.4370868727625936	1.1571399354672083	0.34552480593939233	2.4052176414992155	1.0995789623134655	0.432098524292429	2.1366111993861985	0.8509906868259481	0.3411034851257545	1.3687618600185014	1.2183732496593374	0.17512603535492044	1.7895577576271984	1.0772158002285004	0.17532008202277644	2.0623792990243026	0.8232514202958489	0.17368499837070117	2.459640195533699	1.19271844076136	0.1704240276244713	2.306293450180677	1.0283897354482403	0.10117492325778252	2.0641820336728283	0.7046614829183874	0.1846522148510566	0.657233447621032	1.128370312016785	0.36247445258975763	0.3117811386492727	1.386752315822412	0.4177148720926125	0.5505573430455943	1.5811510885432527	0.40408414406576815	0.7488510105616353	1.161803505428972	0.5568543728815646	1.0881961818804593	1.167913838835838	0.5847528230849407	1.391557145323312	1.4451901907636844	0.4221722114388659	0.7246783912700997	1.1728983715002004	0.17240878076697622	1.077259406925298	1.2034051100537806	0.0797037788125431	1.4255704734406527	1.5844240866989858	0.25856015248118347
80	1.3333333333333333	1.3737316792301502	1.1694816288571839	0.45192072940944855	1.8218727748061774	1.1177169097404889	0.43121482618804025	2.1523962582006306	0.9308174587332599	0.3543321528728267	2.4210951255523807	1.132096983479948	0.33353635356443573	2.404529246613818	1.0987654811902368	0.4323172032734778	2.146105347797208	0.8671707186988759	0.338018213821784	1.3749591761386433	1.2218400454907479	0.17420623591972356	1.7900575052253556	1.0809837361864958	0.1732874970265173	2.062914166978568	0.8250898400780023	0.17323504210186974	2.4480381732176726	1.1736354227143053	0.17400919156626785	2.307850109446552	1.0318402894704752	0.10027459404814654	2.065109730460496	0.7074485296981375	0.18414220702201	0.6540017949269269	1.13225706545714	0.36299419960069296	0.3112678537344723	1.3899813022254424	0.41754772662519374	0.550658368404949	1.5808424161925845	0.40399071186140456	0.7490789816634709	1.1613389281927986	0.5567996710026746	1.0882498430976553	1.169692292724394	0.5847781159422226	1.3913146559813636	1.4438322223161835	0.42252740275529144	0.7247453854012809	1.1721929725187354	0.17256661771856394	1.0676685138434785	1.181961589256969	0.08560095338342238	1.4253206172180164	1.58123306688751	0.25886121202557943
